<svg xmlns="http://www.w3.org/2000/svg" style="display: none;">
  <!-- TOTAL PROFIT -->
  <symbol id="profit" viewBox="0 0 100 100">
    <path
       d="M80 290.542a30 15 0 0 1-30 15 30 15 0 0 1-30-15 30 15 0 0 1 30-15 30 15 0 0 1 30 15zm-60 30c0 8.284 13.431 15 30 15 16.569 0 30-6.716 30-15m0-30v60m-60-60v60m0-15c0 8.284 13.431 15 30 15 16.569 0 30-6.716 30-15m-60 15c0 8.284 13.431 15 30 15 16.569 0 30-6.716 30-15m-60-45c0 8.284 13.431 15 30 15 16.569 0 30-6.716 30-15" transform="translate(0 -270.542)"/>
  </symbol>
  <!-- ACTIVE USERS -->
  <symbol id="users" viewBox="0 0 100 100">
    <path d="M75 30a25 25 0 0 1-25 25 25 25 0 0 1-25-25 25 25 0 0 1 25-25 25 25 0 0 1 25 25zm15 65c0-22.091-17.909-40-40-40s-40 17.909-40 40"/>
  </symbol>
  <!-- NEW ORDERS -->
  <symbol id="orders" viewBox="0 0 100 100">
    <path d="M65 35h30v30h-30zm0 30h30v30h-30zm-60-60h30v30h-30zm0 30h30v30h-30zm0 30h30v30h-30z"/>
  </symbol>
  <!-- OPEN COMPLAINTS -->
  <symbol id="complaints" viewBox="0 0 100 100">
    <path d="M95 50a12.5 12.5 0 0 1-12.5 12.5 12.5 12.5 0 0 1-12.5-12.5 12.5 12.5 0 0 1 12.5-12.5 12.5 12.5 0 0 1 12.5 12.5zm-32.5 0a12.5 12.5 0 0 1-12.5 12.5 12.5 12.5 0 0 1-12.5-12.5 12.5 12.5 0 0 1 12.5-12.5 12.5 12.5 0 0 1 12.5 12.5zm-32.5 0a12.5 12.5 0 0 1-12.5 12.5 12.5 12.5 0 0 1-12.5-12.5 12.5 12.5 0 0 1 12.5-12.5 12.5 12.5 0 0 1 12.5 12.5z"/>
  </symbol>
</svg>